# xmcd CD database file
#
# Track frame offsets:
#	150
#	20032
#	44219
#	70437
#	103583
#	123595
#	152058
#	173685
#	203381
#	228810
#	263348
#
# Disc length: 3826 seconds
#
# Revision: 0
# Processed by: cddbd v1.5.2PL0 Copyright (c) Steve Scherf et al.
# Submitted via: CDex 1.70beta2
#
DISCID=8e0ef00b
DTITLE=Peter Beets - New Groove
DYEAR=1900
DGENRE=Jazz
TTITLE0=You're My Everything
TTITLE1=I'm Old Fashioned
TTITLE2=Blues For Giltay
TTITLE3=In Your Own Sweet Way
TTITLE4=They Say It's Wonderful 
TTITLE5=Nuages
TTITLE6=Three Little Words
TTITLE7=Easy Listening Blues
TTITLE8=Parker 51
TTITLE9=But Beautiful
TTITLE10=Trocotism
EXTD=
EXTT0=
EXTT1=
EXTT2=
EXTT3=
EXTT4=
EXTT5=
EXTT6=
EXTT7=
EXTT8=
EXTT9=
EXTT10=
PLAYORDER=
